<svg width="1080" height="780" viewBox="0 0 1080 780" fill="none" xmlns="http://www.w3.org/2000/svg">
<rect width="1080" height="780" fill="#D9D9D9"/>
<path d="M165.344 366.5L174.844 387.25L184.344 366.5H194.562L179.594 395.438V412H170.094V395.438L155.094 366.5H165.344ZM194.656 395.438V394.781C194.656 392.302 195.01 390.021 195.719 387.938C196.427 385.833 197.458 384.01 198.812 382.469C200.167 380.927 201.833 379.729 203.812 378.875C205.792 378 208.062 377.562 210.625 377.562C213.188 377.562 215.469 378 217.469 378.875C219.469 379.729 221.146 380.927 222.5 382.469C223.875 384.01 224.917 385.833 225.625 387.938C226.333 390.021 226.688 392.302 226.688 394.781V395.438C226.688 397.896 226.333 400.177 225.625 402.281C224.917 404.365 223.875 406.188 222.5 407.75C221.146 409.292 219.479 410.49 217.5 411.344C215.521 412.198 213.25 412.625 210.688 412.625C208.125 412.625 205.844 412.198 203.844 411.344C201.865 410.49 200.188 409.292 198.812 407.75C197.458 406.188 196.427 404.365 195.719 402.281C195.01 400.177 194.656 397.896 194.656 395.438ZM203.656 394.781V395.438C203.656 396.854 203.781 398.177 204.031 399.406C204.281 400.635 204.677 401.719 205.219 402.656C205.781 403.573 206.51 404.292 207.406 404.812C208.302 405.333 209.396 405.594 210.688 405.594C211.938 405.594 213.01 405.333 213.906 404.812C214.802 404.292 215.521 403.573 216.062 402.656C216.604 401.719 217 400.635 217.25 399.406C217.521 398.177 217.656 396.854 217.656 395.438V394.781C217.656 393.406 217.521 392.115 217.25 390.906C217 389.677 216.594 388.594 216.031 387.656C215.49 386.698 214.771 385.948 213.875 385.406C212.979 384.865 211.896 384.594 210.625 384.594C209.354 384.594 208.271 384.865 207.375 385.406C206.5 385.948 205.781 386.698 205.219 387.656C204.677 388.594 204.281 389.677 204.031 390.906C203.781 392.115 203.656 393.406 203.656 394.781ZM252.219 403.906V378.188H261.219V412H252.75L252.219 403.906ZM253.219 396.969L255.875 396.906C255.875 399.156 255.615 401.25 255.094 403.188C254.573 405.104 253.792 406.771 252.75 408.188C251.708 409.583 250.396 410.677 248.812 411.469C247.229 412.24 245.365 412.625 243.219 412.625C241.573 412.625 240.052 412.396 238.656 411.938C237.281 411.458 236.094 410.719 235.094 409.719C234.115 408.698 233.344 407.396 232.781 405.812C232.24 404.208 231.969 402.281 231.969 400.031V378.188H240.969V400.094C240.969 401.094 241.083 401.938 241.312 402.625C241.562 403.312 241.906 403.875 242.344 404.312C242.781 404.75 243.292 405.062 243.875 405.25C244.479 405.438 245.146 405.531 245.875 405.531C247.729 405.531 249.188 405.156 250.25 404.406C251.333 403.656 252.094 402.635 252.531 401.344C252.99 400.031 253.219 398.573 253.219 396.969ZM293.688 403.25L300.719 378.188H306.438L304.594 388.031L297.562 412H292.781L293.688 403.25ZM290.125 378.188L295.156 403.219L295.625 412H290L281.438 378.188H290.125ZM312.875 402.812L317.781 378.188H326.5L317.938 412H312.344L312.875 402.812ZM307.219 378.188L314.219 403.062L315.188 412H310.375L303.344 388.062L301.562 378.188H307.219ZM340.531 378.188V412H331.5V378.188H340.531ZM330.938 369.375C330.938 368.062 331.396 366.979 332.312 366.125C333.229 365.271 334.458 364.844 336 364.844C337.521 364.844 338.74 365.271 339.656 366.125C340.594 366.979 341.062 368.062 341.062 369.375C341.062 370.688 340.594 371.771 339.656 372.625C338.74 373.479 337.521 373.906 336 373.906C334.458 373.906 333.229 373.479 332.312 372.625C331.396 371.771 330.938 370.688 330.938 369.375ZM357.469 364V412H348.438V364H357.469ZM374.406 364V412H365.375V364H374.406ZM416.062 402.656C416.062 402.01 415.875 401.427 415.5 400.906C415.125 400.385 414.427 399.906 413.406 399.469C412.406 399.01 410.958 398.594 409.062 398.219C407.354 397.844 405.76 397.375 404.281 396.812C402.823 396.229 401.552 395.531 400.469 394.719C399.406 393.906 398.573 392.948 397.969 391.844C397.365 390.719 397.062 389.438 397.062 388C397.062 386.583 397.365 385.25 397.969 384C398.594 382.75 399.479 381.646 400.625 380.688C401.792 379.708 403.208 378.948 404.875 378.406C406.562 377.844 408.458 377.562 410.562 377.562C413.5 377.562 416.021 378.031 418.125 378.969C420.25 379.906 421.875 381.198 423 382.844C424.146 384.469 424.719 386.323 424.719 388.406H415.719C415.719 387.531 415.531 386.75 415.156 386.062C414.802 385.354 414.24 384.802 413.469 384.406C412.719 383.99 411.74 383.781 410.531 383.781C409.531 383.781 408.667 383.958 407.938 384.312C407.208 384.646 406.646 385.104 406.25 385.688C405.875 386.25 405.688 386.875 405.688 387.562C405.688 388.083 405.792 388.552 406 388.969C406.229 389.365 406.594 389.729 407.094 390.062C407.594 390.396 408.24 390.708 409.031 391C409.844 391.271 410.844 391.521 412.031 391.75C414.469 392.25 416.646 392.906 418.562 393.719C420.479 394.51 422 395.594 423.125 396.969C424.25 398.323 424.812 400.104 424.812 402.312C424.812 403.812 424.479 405.188 423.812 406.438C423.146 407.688 422.188 408.781 420.938 409.719C419.688 410.635 418.188 411.354 416.438 411.875C414.708 412.375 412.76 412.625 410.594 412.625C407.448 412.625 404.781 412.062 402.594 410.938C400.427 409.812 398.781 408.385 397.656 406.656C396.552 404.906 396 403.115 396 401.281H404.531C404.573 402.51 404.885 403.5 405.469 404.25C406.073 405 406.833 405.542 407.75 405.875C408.688 406.208 409.698 406.375 410.781 406.375C411.948 406.375 412.917 406.219 413.688 405.906C414.458 405.573 415.042 405.135 415.438 404.594C415.854 404.031 416.062 403.385 416.062 402.656ZM446.219 412.625C443.594 412.625 441.24 412.208 439.156 411.375C437.073 410.521 435.302 409.344 433.844 407.844C432.406 406.344 431.302 404.604 430.531 402.625C429.76 400.625 429.375 398.5 429.375 396.25V395C429.375 392.438 429.74 390.094 430.469 387.969C431.198 385.844 432.24 384 433.594 382.438C434.969 380.875 436.635 379.677 438.594 378.844C440.552 377.99 442.76 377.562 445.219 377.562C447.615 377.562 449.74 377.958 451.594 378.75C453.448 379.542 455 380.667 456.25 382.125C457.521 383.583 458.479 385.333 459.125 387.375C459.771 389.396 460.094 391.646 460.094 394.125V397.875H433.219V391.875H451.25V391.188C451.25 389.938 451.021 388.823 450.562 387.844C450.125 386.844 449.458 386.052 448.562 385.469C447.667 384.885 446.521 384.594 445.125 384.594C443.938 384.594 442.917 384.854 442.062 385.375C441.208 385.896 440.51 386.625 439.969 387.562C439.448 388.5 439.052 389.604 438.781 390.875C438.531 392.125 438.406 393.5 438.406 395V396.25C438.406 397.604 438.594 398.854 438.969 400C439.365 401.146 439.917 402.135 440.625 402.969C441.354 403.802 442.229 404.448 443.25 404.906C444.292 405.365 445.469 405.594 446.781 405.594C448.406 405.594 449.917 405.281 451.312 404.656C452.729 404.01 453.948 403.042 454.969 401.75L459.344 406.5C458.635 407.521 457.667 408.5 456.438 409.438C455.229 410.375 453.771 411.146 452.062 411.75C450.354 412.333 448.406 412.625 446.219 412.625ZM480.781 412.625C478.156 412.625 475.802 412.208 473.719 411.375C471.635 410.521 469.865 409.344 468.406 407.844C466.969 406.344 465.865 404.604 465.094 402.625C464.323 400.625 463.938 398.5 463.938 396.25V395C463.938 392.438 464.302 390.094 465.031 387.969C465.76 385.844 466.802 384 468.156 382.438C469.531 380.875 471.198 379.677 473.156 378.844C475.115 377.99 477.323 377.562 479.781 377.562C482.177 377.562 484.302 377.958 486.156 378.75C488.01 379.542 489.562 380.667 490.812 382.125C492.083 383.583 493.042 385.333 493.688 387.375C494.333 389.396 494.656 391.646 494.656 394.125V397.875H467.781V391.875H485.812V391.188C485.812 389.938 485.583 388.823 485.125 387.844C484.688 386.844 484.021 386.052 483.125 385.469C482.229 384.885 481.083 384.594 479.688 384.594C478.5 384.594 477.479 384.854 476.625 385.375C475.771 385.896 475.073 386.625 474.531 387.562C474.01 388.5 473.615 389.604 473.344 390.875C473.094 392.125 472.969 393.5 472.969 395V396.25C472.969 397.604 473.156 398.854 473.531 400C473.927 401.146 474.479 402.135 475.188 402.969C475.917 403.802 476.792 404.448 477.812 404.906C478.854 405.365 480.031 405.594 481.344 405.594C482.969 405.594 484.479 405.281 485.875 404.656C487.292 404.01 488.51 403.042 489.531 401.75L493.906 406.5C493.198 407.521 492.229 408.5 491 409.438C489.792 410.375 488.333 411.146 486.625 411.75C484.917 412.333 482.969 412.625 480.781 412.625ZM525.219 378.188V412H516.188V378.188H525.219ZM515.625 369.375C515.625 368.062 516.083 366.979 517 366.125C517.917 365.271 519.146 364.844 520.688 364.844C522.208 364.844 523.427 365.271 524.344 366.125C525.281 366.979 525.75 368.062 525.75 369.375C525.75 370.688 525.281 371.771 524.344 372.625C523.427 373.479 522.208 373.906 520.688 373.906C519.146 373.906 517.917 373.479 517 372.625C516.083 371.771 515.625 370.688 515.625 369.375ZM541.469 385.406V412H532.469V378.188H540.906L541.469 385.406ZM540.156 393.906H537.719C537.719 391.406 538.042 389.156 538.688 387.156C539.333 385.135 540.24 383.417 541.406 382C542.573 380.562 543.958 379.469 545.562 378.719C547.188 377.948 549 377.562 551 377.562C552.583 377.562 554.031 377.792 555.344 378.25C556.656 378.708 557.781 379.438 558.719 380.438C559.677 381.438 560.406 382.76 560.906 384.406C561.427 386.052 561.688 388.062 561.688 390.438V412H552.625V390.406C552.625 388.906 552.417 387.74 552 386.906C551.583 386.073 550.969 385.49 550.156 385.156C549.365 384.802 548.385 384.625 547.219 384.625C546.01 384.625 544.958 384.865 544.062 385.344C543.188 385.823 542.458 386.49 541.875 387.344C541.312 388.177 540.885 389.156 540.594 390.281C540.302 391.406 540.156 392.615 540.156 393.906ZM602.719 404.375V389.312C602.719 388.229 602.542 387.302 602.188 386.531C601.833 385.74 601.281 385.125 600.531 384.688C599.802 384.25 598.854 384.031 597.688 384.031C596.688 384.031 595.823 384.208 595.094 384.562C594.365 384.896 593.802 385.385 593.406 386.031C593.01 386.656 592.812 387.396 592.812 388.25H583.812C583.812 386.812 584.146 385.448 584.812 384.156C585.479 382.865 586.448 381.729 587.719 380.75C588.99 379.75 590.5 378.969 592.25 378.406C594.021 377.844 596 377.562 598.188 377.562C600.812 377.562 603.146 378 605.188 378.875C607.229 379.75 608.833 381.062 610 382.812C611.188 384.562 611.781 386.75 611.781 389.375V403.844C611.781 405.698 611.896 407.219 612.125 408.406C612.354 409.573 612.688 410.594 613.125 411.469V412H604.031C603.594 411.083 603.26 409.938 603.031 408.562C602.823 407.167 602.719 405.771 602.719 404.375ZM603.906 391.406L603.969 396.5H598.938C597.75 396.5 596.719 396.635 595.844 396.906C594.969 397.177 594.25 397.562 593.688 398.062C593.125 398.542 592.708 399.104 592.438 399.75C592.188 400.396 592.062 401.104 592.062 401.875C592.062 402.646 592.24 403.344 592.594 403.969C592.948 404.573 593.458 405.052 594.125 405.406C594.792 405.74 595.573 405.906 596.469 405.906C597.823 405.906 599 405.635 600 405.094C601 404.552 601.771 403.885 602.312 403.094C602.875 402.302 603.167 401.552 603.188 400.844L605.562 404.656C605.229 405.51 604.771 406.396 604.188 407.312C603.625 408.229 602.906 409.094 602.031 409.906C601.156 410.698 600.104 411.354 598.875 411.875C597.646 412.375 596.188 412.625 594.5 412.625C592.354 412.625 590.406 412.198 588.656 411.344C586.927 410.469 585.552 409.271 584.531 407.75C583.531 406.208 583.031 404.458 583.031 402.5C583.031 400.729 583.365 399.156 584.031 397.781C584.698 396.406 585.677 395.25 586.969 394.312C588.281 393.354 589.917 392.635 591.875 392.156C593.833 391.656 596.104 391.406 598.688 391.406H603.906ZM643.656 385.188V412H634.625V378.188H643.094L643.656 385.188ZM642.406 393.906H639.906C639.906 391.552 640.188 389.385 640.75 387.406C641.333 385.406 642.177 383.677 643.281 382.219C644.406 380.74 645.792 379.594 647.438 378.781C649.083 377.969 650.99 377.562 653.156 377.562C654.656 377.562 656.031 377.792 657.281 378.25C658.531 378.688 659.604 379.385 660.5 380.344C661.417 381.281 662.125 382.51 662.625 384.031C663.125 385.531 663.375 387.333 663.375 389.438V412H654.375V390.438C654.375 388.896 654.167 387.708 653.75 386.875C653.333 386.042 652.74 385.458 651.969 385.125C651.219 384.792 650.312 384.625 649.25 384.625C648.083 384.625 647.062 384.865 646.188 385.344C645.333 385.823 644.625 386.49 644.062 387.344C643.5 388.177 643.083 389.156 642.812 390.281C642.542 391.406 642.406 392.615 642.406 393.906ZM662.531 392.875L659.312 393.281C659.312 391.073 659.583 389.021 660.125 387.125C660.688 385.229 661.51 383.562 662.594 382.125C663.698 380.688 665.062 379.573 666.688 378.781C668.312 377.969 670.188 377.562 672.312 377.562C673.938 377.562 675.417 377.802 676.75 378.281C678.083 378.74 679.219 379.479 680.156 380.5C681.115 381.5 681.844 382.812 682.344 384.438C682.865 386.062 683.125 388.052 683.125 390.406V412H674.094V390.406C674.094 388.844 673.885 387.656 673.469 386.844C673.073 386.01 672.49 385.438 671.719 385.125C670.969 384.792 670.073 384.625 669.031 384.625C667.948 384.625 667 384.844 666.188 385.281C665.375 385.698 664.698 386.281 664.156 387.031C663.615 387.781 663.208 388.656 662.938 389.656C662.667 390.635 662.531 391.708 662.531 392.875ZM688.656 395.438V394.781C688.656 392.302 689.01 390.021 689.719 387.938C690.427 385.833 691.458 384.01 692.812 382.469C694.167 380.927 695.833 379.729 697.812 378.875C699.792 378 702.062 377.562 704.625 377.562C707.188 377.562 709.469 378 711.469 378.875C713.469 379.729 715.146 380.927 716.5 382.469C717.875 384.01 718.917 385.833 719.625 387.938C720.333 390.021 720.688 392.302 720.688 394.781V395.438C720.688 397.896 720.333 400.177 719.625 402.281C718.917 404.365 717.875 406.188 716.5 407.75C715.146 409.292 713.479 410.49 711.5 411.344C709.521 412.198 707.25 412.625 704.688 412.625C702.125 412.625 699.844 412.198 697.844 411.344C695.865 410.49 694.188 409.292 692.812 407.75C691.458 406.188 690.427 404.365 689.719 402.281C689.01 400.177 688.656 397.896 688.656 395.438ZM697.656 394.781V395.438C697.656 396.854 697.781 398.177 698.031 399.406C698.281 400.635 698.677 401.719 699.219 402.656C699.781 403.573 700.51 404.292 701.406 404.812C702.302 405.333 703.396 405.594 704.688 405.594C705.938 405.594 707.01 405.333 707.906 404.812C708.802 404.292 709.521 403.573 710.062 402.656C710.604 401.719 711 400.635 711.25 399.406C711.521 398.177 711.656 396.854 711.656 395.438V394.781C711.656 393.406 711.521 392.115 711.25 390.906C711 389.677 710.594 388.594 710.031 387.656C709.49 386.698 708.771 385.948 707.875 385.406C706.979 384.865 705.896 384.594 704.625 384.594C703.354 384.594 702.271 384.865 701.375 385.406C700.5 385.948 699.781 386.698 699.219 387.656C698.677 388.594 698.281 389.677 698.031 390.906C697.781 392.115 697.656 393.406 697.656 394.781ZM735.219 385.188V412H726.188V378.188H734.656L735.219 385.188ZM733.969 393.906H731.469C731.469 391.552 731.75 389.385 732.312 387.406C732.896 385.406 733.74 383.677 734.844 382.219C735.969 380.74 737.354 379.594 739 378.781C740.646 377.969 742.552 377.562 744.719 377.562C746.219 377.562 747.594 377.792 748.844 378.25C750.094 378.688 751.167 379.385 752.062 380.344C752.979 381.281 753.688 382.51 754.188 384.031C754.688 385.531 754.938 387.333 754.938 389.438V412H745.938V390.438C745.938 388.896 745.729 387.708 745.312 386.875C744.896 386.042 744.302 385.458 743.531 385.125C742.781 384.792 741.875 384.625 740.812 384.625C739.646 384.625 738.625 384.865 737.75 385.344C736.896 385.823 736.188 386.49 735.625 387.344C735.062 388.177 734.646 389.156 734.375 390.281C734.104 391.406 733.969 392.615 733.969 393.906ZM754.094 392.875L750.875 393.281C750.875 391.073 751.146 389.021 751.688 387.125C752.25 385.229 753.073 383.562 754.156 382.125C755.26 380.688 756.625 379.573 758.25 378.781C759.875 377.969 761.75 377.562 763.875 377.562C765.5 377.562 766.979 377.802 768.312 378.281C769.646 378.74 770.781 379.479 771.719 380.5C772.677 381.5 773.406 382.812 773.906 384.438C774.427 386.062 774.688 388.052 774.688 390.406V412H765.656V390.406C765.656 388.844 765.448 387.656 765.031 386.844C764.635 386.01 764.052 385.438 763.281 385.125C762.531 384.792 761.635 384.625 760.594 384.625C759.51 384.625 758.562 384.844 757.75 385.281C756.938 385.698 756.26 386.281 755.719 387.031C755.177 387.781 754.771 388.656 754.5 389.656C754.229 390.635 754.094 391.708 754.094 392.875ZM797.219 412.625C794.594 412.625 792.24 412.208 790.156 411.375C788.073 410.521 786.302 409.344 784.844 407.844C783.406 406.344 782.302 404.604 781.531 402.625C780.76 400.625 780.375 398.5 780.375 396.25V395C780.375 392.438 780.74 390.094 781.469 387.969C782.198 385.844 783.24 384 784.594 382.438C785.969 380.875 787.635 379.677 789.594 378.844C791.552 377.99 793.76 377.562 796.219 377.562C798.615 377.562 800.74 377.958 802.594 378.75C804.448 379.542 806 380.667 807.25 382.125C808.521 383.583 809.479 385.333 810.125 387.375C810.771 389.396 811.094 391.646 811.094 394.125V397.875H784.219V391.875H802.25V391.188C802.25 389.938 802.021 388.823 801.562 387.844C801.125 386.844 800.458 386.052 799.562 385.469C798.667 384.885 797.521 384.594 796.125 384.594C794.938 384.594 793.917 384.854 793.062 385.375C792.208 385.896 791.51 386.625 790.969 387.562C790.448 388.5 790.052 389.604 789.781 390.875C789.531 392.125 789.406 393.5 789.406 395V396.25C789.406 397.604 789.594 398.854 789.969 400C790.365 401.146 790.917 402.135 791.625 402.969C792.354 403.802 793.229 404.448 794.25 404.906C795.292 405.365 796.469 405.594 797.781 405.594C799.406 405.594 800.917 405.281 802.312 404.656C803.729 404.01 804.948 403.042 805.969 401.75L810.344 406.5C809.635 407.521 808.667 408.5 807.438 409.438C806.229 410.375 804.771 411.146 803.062 411.75C801.354 412.333 799.406 412.625 797.219 412.625ZM825.031 385.406V412H816.031V378.188H824.469L825.031 385.406ZM823.719 393.906H821.281C821.281 391.406 821.604 389.156 822.25 387.156C822.896 385.135 823.802 383.417 824.969 382C826.135 380.562 827.521 379.469 829.125 378.719C830.75 377.948 832.562 377.562 834.562 377.562C836.146 377.562 837.594 377.792 838.906 378.25C840.219 378.708 841.344 379.438 842.281 380.438C843.24 381.438 843.969 382.76 844.469 384.406C844.99 386.052 845.25 388.062 845.25 390.438V412H836.188V390.406C836.188 388.906 835.979 387.74 835.562 386.906C835.146 386.073 834.531 385.49 833.719 385.156C832.927 384.802 831.948 384.625 830.781 384.625C829.573 384.625 828.521 384.865 827.625 385.344C826.75 385.823 826.021 386.49 825.438 387.344C824.875 388.177 824.448 389.156 824.156 390.281C823.865 391.406 823.719 392.615 823.719 393.906ZM868.656 378.188V384.562H848.969V378.188H868.656ZM853.844 369.844H862.844V401.812C862.844 402.792 862.969 403.542 863.219 404.062C863.49 404.583 863.885 404.948 864.406 405.156C864.927 405.344 865.583 405.438 866.375 405.438C866.938 405.438 867.438 405.417 867.875 405.375C868.333 405.312 868.719 405.25 869.031 405.188L869.062 411.812C868.292 412.062 867.458 412.26 866.562 412.406C865.667 412.552 864.677 412.625 863.594 412.625C861.615 412.625 859.885 412.302 858.406 411.656C856.948 410.99 855.823 409.927 855.031 408.469C854.24 407.01 853.844 405.094 853.844 402.719V369.844ZM874.219 407.656C874.219 406.323 874.677 405.208 875.594 404.312C876.531 403.417 877.771 402.969 879.312 402.969C880.854 402.969 882.083 403.417 883 404.312C883.938 405.208 884.406 406.323 884.406 407.656C884.406 408.99 883.938 410.104 883 411C882.083 411.896 880.854 412.344 879.312 412.344C877.771 412.344 876.531 411.896 875.594 411C874.677 410.104 874.219 408.99 874.219 407.656ZM892.781 407.656C892.781 406.323 893.24 405.208 894.156 404.312C895.094 403.417 896.333 402.969 897.875 402.969C899.417 402.969 900.646 403.417 901.562 404.312C902.5 405.208 902.969 406.323 902.969 407.656C902.969 408.99 902.5 410.104 901.562 411C900.646 411.896 899.417 412.344 897.875 412.344C896.333 412.344 895.094 411.896 894.156 411C893.24 410.104 892.781 408.99 892.781 407.656ZM911.344 407.656C911.344 406.323 911.802 405.208 912.719 404.312C913.656 403.417 914.896 402.969 916.438 402.969C917.979 402.969 919.208 403.417 920.125 404.312C921.062 405.208 921.531 406.323 921.531 407.656C921.531 408.99 921.062 410.104 920.125 411C919.208 411.896 917.979 412.344 916.438 412.344C914.896 412.344 913.656 411.896 912.719 411C911.802 410.104 911.344 408.99 911.344 407.656Z" fill="black"/>
</svg>
